<svg width="23" height="27" viewBox="0 0 23 27" fill="none" xmlns="http://www.w3.org/2000/svg">
<path fill-rule="evenodd" clip-rule="evenodd" d="M2.98315 9.76636C2.98315 7.28667 3.88046 4.90854 5.47768 3.15513C7.0749 1.40172 9.24119 0.416668 11.5 0.416668C13.7588 0.416668 15.9251 1.40172 17.5223 3.15513C19.1195 4.90854 20.0169 7.28667 20.0169 9.76636V14.7938L22.2337 19.661C22.3357 19.885 22.3839 20.134 22.3736 20.3842C22.3634 20.6344 22.295 20.8776 22.1751 21.0906C22.0551 21.3037 21.8876 21.4795 21.6883 21.6015C21.489 21.7234 21.2646 21.7874 21.0364 21.7874H16.2135C15.9428 22.9337 15.3331 23.9489 14.48 24.6737C13.6269 25.3984 12.5787 25.7917 11.5 25.7917C10.4213 25.7917 9.3731 25.3984 8.52 24.6737C7.6669 23.9489 7.05717 22.9337 6.78653 21.7874H1.96356C1.7354 21.7874 1.51103 21.7234 1.31174 21.6015C1.11245 21.4795 0.944869 21.3037 0.824912 21.0906C0.704955 20.8776 0.636604 20.6344 0.626352 20.3842C0.6161 20.134 0.664286 19.885 0.766334 19.661L2.98315 14.7938V9.76636ZM9.39269 21.7874C9.60627 22.1935 9.91345 22.5307 10.2834 22.7651C10.6533 22.9995 11.0729 23.123 11.5 23.123C11.9271 23.123 12.3467 22.9995 12.7166 22.7651C13.0865 22.5307 13.3937 22.1935 13.6073 21.7874H9.39269ZM11.5 3.08801C9.88657 3.08801 8.33921 3.79162 7.19834 5.04405C6.05747 6.29649 5.41654 7.99515 5.41654 9.76636V14.7938C5.41651 15.2083 5.32862 15.6171 5.15981 15.9879L3.73628 19.1161H19.2649L17.8414 15.9879C17.6722 15.6173 17.5839 15.2084 17.5835 14.7938V9.76636C17.5835 7.99515 16.9425 6.29649 15.8017 5.04405C14.6608 3.79162 13.1134 3.08801 11.5 3.08801Z" fill="#2B9F40"/>
</svg>
