<svg width="153" height="153" viewBox="0 0 153 153" fill="none" xmlns="http://www.w3.org/2000/svg">
<path d="M76.5 25.5C83.263 25.5 89.749 28.1866 94.5312 32.9688C99.3134 37.751 102 44.237 102 51C102 57.763 99.3134 64.249 94.5312 69.0312C89.749 73.8134 83.263 76.5 76.5 76.5C69.737 76.5 63.251 73.8134 58.4688 69.0312C53.6866 64.249 51 57.763 51 51C51 44.237 53.6866 37.751 58.4688 32.9688C63.251 28.1866 69.737 25.5 76.5 25.5ZM76.5 89.25C104.677 89.25 127.5 100.661 127.5 114.75V127.5H25.5V114.75C25.5 100.661 48.3225 89.25 76.5 89.25Z" fill="#5835D9"/>
</svg>
