<svg width="181" height="181" viewBox="0 0 181 181" fill="none" xmlns="http://www.w3.org/2000/svg">
<path d="M164.562 1.625H16.4375C12.509 1.625 8.74136 3.1856 5.96348 5.96348C3.1856 8.74136 1.625 12.509 1.625 16.4375V164.562C1.625 168.491 3.1856 172.259 5.96348 175.037C8.74136 177.814 12.509 179.375 16.4375 179.375H164.562C168.491 179.375 172.259 177.814 175.037 175.037C177.814 172.259 179.375 168.491 179.375 164.562V16.4375C179.375 12.509 177.814 8.74136 175.037 5.96348C172.259 3.1856 168.491 1.625 164.562 1.625Z" stroke="#5835D9" stroke-width="2" stroke-linecap="round" stroke-linejoin="round"/>
<path d="M179.375 149.75L125.062 100.375L75.6875 144.812L41.125 115.188L1.625 144.812M60.875 85.5625C67.4225 85.5625 73.7019 82.9615 78.3317 78.3317C82.9615 73.7019 85.5625 67.4225 85.5625 60.875C85.5625 54.3275 82.9615 48.0481 78.3317 43.4183C73.7019 38.7885 67.4225 36.1875 60.875 36.1875C54.3275 36.1875 48.0481 38.7885 43.4183 43.4183C38.7885 48.0481 36.1875 54.3275 36.1875 60.875C36.1875 67.4225 38.7885 73.7019 43.4183 78.3317C48.0481 82.9615 54.3275 85.5625 60.875 85.5625Z" stroke="#5835D9" stroke-width="2" stroke-linecap="round" stroke-linejoin="round"/>
</svg>
