<svg width="67" height="67" viewBox="0 0 67 67" fill="none" xmlns="http://www.w3.org/2000/svg">
<path d="M60.0625 1.625H6.9375C5.52854 1.625 4.17728 2.18471 3.181 3.181C2.18471 4.17728 1.625 5.52854 1.625 6.9375V60.0625C1.625 61.4715 2.18471 62.8227 3.181 63.819C4.17728 64.8153 5.52854 65.375 6.9375 65.375H60.0625C61.4715 65.375 62.8227 64.8153 63.819 63.819C64.8153 62.8227 65.375 61.4715 65.375 60.0625V6.9375C65.375 5.52854 64.8153 4.17728 63.819 3.181C62.8227 2.18471 61.4715 1.625 60.0625 1.625Z" stroke="#5835D9" stroke-width="2" stroke-linecap="round" stroke-linejoin="round"/>
<path d="M65.375 54.75L45.8958 37.0417L28.1875 52.9792L15.7917 42.3542L1.625 52.9792M22.875 31.7292C25.2233 31.7292 27.4754 30.7964 29.1358 29.1359C30.7963 27.4754 31.7292 25.2233 31.7292 22.875C31.7292 20.5268 30.7963 18.2747 29.1358 16.6142C27.4754 14.9537 25.2233 14.0209 22.875 14.0209C20.5267 14.0209 18.2746 14.9537 16.6142 16.6142C14.9537 18.2747 14.0208 20.5268 14.0208 22.875C14.0208 25.2233 14.9537 27.4754 16.6142 29.1359C18.2746 30.7964 20.5267 31.7292 22.875 31.7292Z" stroke="#5835D9" stroke-width="2" stroke-linecap="round" stroke-linejoin="round"/>
</svg>
